<svg width="376" height="101" viewBox="0 0 376 101" fill="none" xmlns="http://www.w3.org/2000/svg">
<path d="M204.096 52.1563V60.6031H194.471V64.2753H203.594V66.1608C203.594 68.1072 203.594 70.0535 203.594 71.9922C203.594 72.6461 203.374 72.821 202.75 72.8134C200.325 72.8134 197.892 72.8134 195.459 72.8134H194.433V76.5692C194.737 76.5692 195.056 76.63 195.368 76.6376C197.983 76.6376 200.599 76.6376 203.207 76.6376C203.929 76.6376 204.149 76.8505 204.134 77.5652C204.096 80.0513 204.134 82.5375 204.134 85.0844H184.724V66.8603L184.579 66.8223C184.511 67.0047 184.42 67.1796 184.367 67.3697C183.097 71.6349 180.109 73.9158 175.829 74.4936C173.862 74.6701 171.888 74.7437 169.913 74.7141C169.678 74.7141 169.442 74.7521 169.153 74.7749V85.0464H159.391V52.1943C159.55 52.1472 159.713 52.1166 159.878 52.1031C164.523 52.1031 169.176 52.0194 173.821 52.1639C175.546 52.2413 177.247 52.5902 178.862 53.1979C180.134 53.6776 181.277 54.4467 182.201 55.4443C183.124 56.4418 183.803 57.6405 184.184 58.9457C184.283 59.227 184.374 59.5159 184.473 59.8048C184.473 59.858 184.526 59.9036 184.64 60.1013V52.1563H204.096ZM169.123 66.6018C170.368 66.572 171.61 66.4628 172.841 66.2749C174.148 66.0088 174.711 64.9519 174.68 63.3249C174.65 61.6979 174.049 60.8008 172.727 60.5499C171.532 60.3822 170.329 60.2807 169.123 60.2458V66.6018Z" fill="black"/>
<path d="M238.416 85.1224C235.374 85.1224 232.417 85.1224 229.444 85.1224C229.11 85.1224 228.722 84.651 228.463 84.3241C224.191 78.921 219.93 73.5052 215.683 68.0767L215.234 67.5369V85.0464H205.518V52.103C207.489 52.1983 209.464 52.1831 211.433 52.0574C213.904 51.7761 215.44 52.6657 216.907 54.6804C220.465 59.5539 224.312 64.2221 228.045 68.9663C228.19 69.1563 228.349 69.3236 228.676 69.7266V52.1411H238.416V85.1224Z" fill="black"/>
<path d="M340.872 69.7342V52.1487H350.558V85.1301H349.585C347.152 85.1301 344.719 85.1301 342.294 85.1301C341.972 85.1608 341.647 85.1069 341.353 84.9735C341.058 84.8401 340.803 84.632 340.614 84.3698C336.425 78.9793 332.197 73.6193 327.985 68.2516C327.841 68.0692 327.681 67.9095 327.377 67.5674V85.0464H317.676V52.1031H319.295C321.576 52.1031 323.91 52.1031 326.221 52.1031C326.474 52.086 326.726 52.137 326.952 52.2506C327.178 52.3643 327.37 52.5365 327.506 52.7493C331.799 58.2487 336.108 63.7406 340.431 69.2248C340.477 69.3236 340.583 69.4301 340.872 69.7342Z" fill="black"/>
<path d="M176.574 31.8262C176.574 22.0868 183.416 14.7805 192.54 13.9746C197.542 13.5336 202.211 14.4383 206.225 17.5403C211.783 21.8436 213.889 27.6674 212.649 34.4948C211.387 41.4362 207.069 45.9599 200.325 47.8531C193.984 49.6397 187.932 48.7654 182.702 44.5002C180.796 42.9813 179.256 41.0539 178.196 38.8602C177.135 36.6666 176.581 34.2627 176.574 31.8262V31.8262ZM202.849 31.2407C202.882 29.6374 202.437 28.0605 201.571 26.7111C200.705 25.3616 199.456 24.3007 197.984 23.6637C196.513 23.0266 194.884 22.8422 193.308 23.134C191.731 23.4258 190.276 24.1805 189.13 25.302C187.984 26.4235 187.197 27.8609 186.871 29.4311C186.545 31.0012 186.694 32.6329 187.298 34.1182C187.903 35.6035 188.936 36.875 190.267 37.7708C191.597 38.6665 193.164 39.1459 194.767 39.1477C195.819 39.1628 196.864 38.9694 197.841 38.5786C198.818 38.1877 199.708 37.6073 200.459 36.8708C201.21 36.1342 201.809 35.2561 202.219 34.2872C202.629 33.3183 202.843 32.2777 202.849 31.2255V31.2407Z" fill="black"/>
<path d="M272.743 61.1657L263.513 64.9672C263.368 64.6478 263.224 64.3665 263.095 64.07C262.038 61.6219 260.327 60.0481 257.529 59.9264C256.139 59.786 254.741 60.094 253.538 60.8053C252.336 61.5167 251.393 62.5941 250.846 63.8799C250.145 65.3215 249.76 66.8964 249.718 68.499C249.676 70.1015 249.978 71.6944 250.603 73.1707C252.124 77.033 257.491 78.6372 261.011 76.3943C261.46 76.1202 261.85 75.7602 262.16 75.3348C262.469 74.9095 262.691 74.4272 262.813 73.9158H256.404V66.0392H274.126C274.354 72.5396 273.366 78.5383 267.71 82.7123C261.27 87.4869 251.158 87.084 245.182 81.8684C242.973 79.9331 241.359 77.4097 240.529 74.5924C239.267 70.6565 239.267 66.4245 240.529 62.4886C241.509 59.4353 243.378 56.7442 245.898 54.761C248.418 52.7777 251.473 51.5927 254.671 51.358C257.363 51.0676 260.085 51.2816 262.699 51.989C267.519 53.3956 270.72 56.5888 272.743 61.1657Z" fill="black"/>
<path d="M269.808 47.7086H260.183V34.8673H249.949V47.6858H240.225V14.788H249.957V26.8006H260.16V14.7804H269.838L269.808 47.7086Z" fill="black"/>
<path d="M150.739 47.6858V14.7272C153.225 14.7272 155.65 14.7272 158.083 14.7272C160.813 14.7272 163.565 14.6132 166.272 14.9097C172.354 15.5787 176.155 20.5891 175.304 26.6714C174.757 30.7237 173.19 32.7537 169.13 34.5556L179.227 47.7466H176.688C173.745 47.7466 170.795 47.7466 167.853 47.7466C167.587 47.7723 167.32 47.7189 167.085 47.5931C166.849 47.4673 166.656 47.2747 166.53 47.0395C164.591 43.9984 162.607 40.9572 160.486 37.6271V47.6782L150.739 47.6858ZM160.471 28.785C162.242 28.785 163.945 28.8838 165.032 27.2644C165.33 26.748 165.469 26.1557 165.432 25.5609C165.396 24.9662 165.185 24.3953 164.827 23.9191C163.649 22.6038 162.075 22.6646 160.478 22.6646L160.471 28.785Z" fill="black"/>
<path d="M274.795 52.1335H284.565V53.2131C284.565 59.412 284.583 65.6083 284.618 71.8021C284.618 71.9238 284.618 72.0454 284.618 72.1671C284.725 76.3715 286.899 77.8388 290.99 77.0634C292.677 76.744 293.848 75.0562 293.894 72.9046C293.978 68.8066 294.016 64.7086 294.054 60.6107C294.054 57.8128 294.054 55.0226 294.054 52.1639H303.717C303.717 52.4376 303.755 52.7265 303.755 53.0154C303.755 59.1509 303.801 65.2865 303.755 71.422C303.738 73.2408 303.529 75.0528 303.131 76.8277C302.044 81.5871 299.003 84.4306 294.244 85.5026C290.881 86.2531 287.392 86.2271 284.041 85.4265C279.03 84.2253 275.982 80.804 275.176 75.5428C274.947 74.0734 274.826 72.5896 274.811 71.1027C274.765 65.0204 274.811 58.8924 274.811 52.7873C274.765 52.582 274.78 52.3996 274.795 52.1335Z" fill="black"/>
<path d="M233.291 24.649C232.179 23.8956 231.001 23.2442 229.771 22.7027C228.704 22.3978 227.587 22.3125 226.487 22.4518C226.094 22.4845 225.726 22.6553 225.448 22.9336C225.17 23.212 224.999 23.58 224.966 23.9723C224.925 24.342 225.02 24.7141 225.234 25.0181C225.449 25.3222 225.767 25.5371 226.129 25.6222C227.308 26.0935 228.524 26.4661 229.718 26.9147C230.804 27.2967 231.869 27.7332 232.911 28.2224C237.001 30.3208 238.735 33.6584 238.233 38.5471C237.655 44.3937 233.565 47.6706 228.098 48.4308C223.077 49.1683 217.965 47.9251 213.843 44.9639C213.417 44.675 213.265 44.4469 213.539 43.9527C214.831 41.5806 216.093 39.1933 217.34 36.8136C217.401 36.7148 217.492 36.6312 217.568 36.5323C218.45 37.2166 219.279 37.9313 220.176 38.5319C221.737 39.6723 223.656 40.2121 225.582 40.0525C226.007 40.0217 226.423 39.9188 226.814 39.7483C227.158 39.6008 227.457 39.3622 227.676 39.0582C227.896 38.7542 228.029 38.3962 228.06 38.0225C228.115 37.6409 228.04 37.252 227.849 36.9174C227.658 36.5829 227.36 36.3216 227.004 36.175C225.878 35.6504 224.723 35.217 223.544 34.776C222.7 34.4491 221.826 34.183 220.975 33.8561C216.291 32.077 214.086 28.3212 214.824 23.3641C215.744 17.1829 220.381 13.564 227.064 13.8529C230.443 14.018 233.741 14.9432 236.713 16.5595C236.888 16.6648 237.058 16.779 237.222 16.9016L233.291 24.649Z" fill="black"/>
<path d="M374.994 54.2471L370.965 62.1541C370.349 61.7055 369.794 61.2494 369.185 60.8616C368.512 60.3653 367.746 60.0104 366.931 59.8183C366.117 59.6262 365.273 59.601 364.449 59.744C364.063 59.8246 363.696 59.9795 363.369 60.2002C363.141 60.3253 362.95 60.5095 362.818 60.7336C362.685 60.9576 362.615 61.2132 362.615 61.4736C362.615 61.734 362.685 61.9897 362.818 62.2137C362.95 62.4377 363.141 62.622 363.369 62.7471C364.109 63.1574 364.885 63.4984 365.688 63.7659C367.163 64.3209 368.729 64.7239 370.121 65.3929C374.986 67.6738 376.56 71.3764 375.83 76.516C375.1 81.6555 371.755 84.7347 366.22 85.8067C363.555 86.2316 360.83 86.1061 358.215 85.4379C355.6 84.7697 353.15 83.573 351.015 81.9216C352.429 79.2682 353.843 76.5996 355.257 73.9386C356.291 74.6989 357.249 75.5048 358.298 76.1738C359.769 77.178 361.541 77.6451 363.316 77.4968C363.766 77.4573 364.208 77.3469 364.624 77.1698C364.967 77.0417 365.267 76.8185 365.488 76.5265C365.709 76.2344 365.842 75.8855 365.873 75.5204C365.903 75.1553 365.829 74.7892 365.659 74.4646C365.489 74.1401 365.23 73.8707 364.913 73.6877C363.783 73.1094 362.611 72.6163 361.408 72.2127C360.389 71.8174 359.332 71.5133 358.329 71.0951C354.071 69.3084 352.246 66.0848 352.581 61.5915C353.067 55.3267 357.256 51.4644 363.719 51.282C367.679 51.2143 371.58 52.2403 374.994 54.2471Z" fill="black"/>
<path d="M139.312 26.9147H148.184V35.3767H139.266V47.6934H129.496V14.7957H148.99C149.029 14.9863 149.054 15.1794 149.066 15.3735C149.066 17.7076 149.066 20.0493 149.066 22.3909C149.066 23.0752 148.846 23.2805 148.177 23.2729C145.561 23.2729 142.946 23.2729 140.331 23.2729H139.281L139.312 26.9147Z" fill="black"/>
<path d="M315.547 85.0844H305.815V52.1487H315.547V85.0844Z" fill="black"/>
<path d="M315.669 31.1723C315.669 40.2957 308.332 47.3208 299.026 47.374C291.818 47.4197 282.68 41.6262 282.801 30.8605C282.925 26.5578 284.732 22.4753 287.833 19.4904C290.935 16.5054 295.084 14.8561 299.388 14.8969C303.692 14.9378 307.809 16.6654 310.853 19.7087C313.897 22.7519 315.626 26.8679 315.669 31.1723V31.1723ZM299.14 44.2721C301.759 44.338 304.339 43.6242 306.552 42.2212C308.765 40.8182 310.511 38.7894 311.569 36.3921C312.627 33.9949 312.948 31.3375 312.493 28.7571C312.038 26.1768 310.826 23.7899 309.012 21.8996C307.197 20.0092 304.862 18.7005 302.303 18.1397C299.743 17.5789 297.075 17.7913 294.636 18.7498C292.197 19.7084 290.099 21.3699 288.606 23.5234C287.114 25.677 286.295 28.2255 286.253 30.8453C286.215 38.4102 291.818 44.2492 299.14 44.2721Z" fill="black"/>
<path d="M124.471 84.8335H121.148V69.4681H105.236V84.8183H101.921V53.4108H105.22V66.2749H121.08V53.4108H124.471V84.8335Z" fill="black"/>
<path d="M147.181 69.0803H134.408V81.7924H147.591V84.8335H130.987V53.4336H147.591V56.4215H134.431V65.9479H147.181V69.0803Z" fill="black"/>
<path d="M320.474 15.4495H335.261V18.4907H323.857V28.0247H334.813V31.0658H323.857V46.6974H320.496L320.474 15.4495Z" fill="black"/>
<path d="M87.9238 56.4595H80.3209V53.4183H98.8492V56.4595H91.3451V84.8183H87.9238V56.4595Z" fill="black"/>
<path d="M39.931 25.4366C42.2934 28.1736 44.7907 30.8093 46.4174 34.0964C47.0787 35.5493 47.5243 37.091 47.7403 38.6727C48.0407 40.4141 48.4457 42.142 48.611 43.907C48.6493 44.3013 48.6436 44.6986 48.5942 45.0916C48.5739 45.2536 48.557 45.4291 48.7292 45.5067C48.9013 45.5843 49.0666 45.4696 49.1746 45.3481C50.015 44.4605 50.3659 43.3502 50.5617 42.1825C50.7945 40.8326 50.7608 39.4388 50.8519 38.0652C51.0578 35.0279 51.078 31.9905 52.05 29.0645C52.6418 27.2891 52.9004 25.4195 52.8127 23.5501C52.6509 19.328 51.1524 15.2664 48.5334 11.9508C46.5423 9.36229 44.3992 6.88854 41.8479 4.83665C37.7641 1.43502 32.5368 -0.281249 27.2315 0.0376464C19.4525 0.419002 13.3711 4.01319 8.71721 10.1351C5.74736 14.0432 3.96208 18.498 2.95975 23.27C2.0688 27.5222 1.30272 31.7948 0.749246 36.0943C0.290475 39.3067 0.0402032 42.5454 2.34517e-05 45.7902C0.00658116 49.5863 0.459671 53.3685 1.34995 57.0587C2.39953 61.4122 3.71234 65.6882 4.98127 69.9809C5.83848 72.9035 6.70581 75.8261 7.34365 78.8061C7.89793 81.697 8.27101 84.6196 8.46072 87.557C8.71045 90.5235 8.86232 93.4967 8.98719 96.47C9.01419 97.101 9.02768 97.7355 9.04118 98.37C9.04118 98.7075 9.12556 98.8458 9.53729 98.9234C11.3091 99.2609 13.0943 99.4297 14.8864 99.5984C18.1228 99.8554 21.3709 99.9354 24.616 99.838H25.0412C25.1796 99.676 25.0109 99.6119 24.9332 99.541C24.319 98.9707 23.7858 98.3261 23.2458 97.6984C22.3785 96.7129 21.4876 95.741 20.8666 94.5699C20.5865 94.0435 20.6472 93.949 21.2311 93.895C21.3593 93.8781 21.4808 93.8646 21.5686 93.7363C21.6563 93.6081 21.5415 93.49 21.4639 93.3989C21.2715 93.1862 21.0623 92.9905 20.87 92.7813C20.0531 91.9651 19.3308 91.0594 18.7168 90.0814C18.4637 89.6427 18.5211 89.5617 19.0205 89.5077C19.1522 89.5077 19.2804 89.5077 19.3344 89.3491C19.3569 89.2806 19.3544 89.2063 19.3272 89.1395C19.3 89.0727 19.2499 89.0178 19.1859 88.9846C18.9328 88.7956 18.6763 88.61 18.4367 88.4041C17.1374 87.2972 16.0743 86.0417 15.6592 84.3206C15.5276 83.7671 15.3926 83.217 15.2779 82.6635C14.9164 81.2687 14.647 79.8516 14.4713 78.4214C14.289 76.0286 15.2745 74.2568 17.3028 73.0217C17.8259 72.7078 17.9305 72.7787 17.9339 73.3591C17.9339 74.5167 17.9339 75.6743 17.9541 76.8285C17.9541 77.7667 18.5008 78.1784 19.4154 77.9894C19.9375 77.8581 20.4329 77.6378 20.8801 77.3381C22.8254 76.1612 24.4488 74.5205 25.6048 72.5627C28.001 68.5838 28.9223 64.1864 29.1518 59.6135C29.3069 56.0529 29.1148 52.4858 28.5781 48.9625C28.1966 46.011 27.4296 43.1222 26.2967 40.3702C25.2568 37.9602 24.4894 35.4416 24.0085 32.8612C23.6711 30.9072 23.5698 29.0173 24.4743 27.124C25.2575 25.4359 25.442 23.5313 24.9974 21.7243C24.7274 20.5093 24.3831 19.3079 24.1098 18.0896C23.6542 16.0445 24.1604 14.2963 25.8208 12.9464C26.8608 12.0648 28.0787 11.4179 29.3914 11.0497C30.7556 10.6445 32.2204 10.7463 33.5154 11.3366C34.4893 11.8007 35.3351 12.4959 35.9791 13.3615C36.4238 13.9781 36.9145 14.5603 37.4471 15.1029C37.7846 15.41 37.9938 15.3391 38.1221 14.9038C38.1591 14.7675 38.1862 14.6288 38.2031 14.4887C38.3553 13.4304 38.1524 12.3515 37.626 11.4209C36.4313 9.65928 34.7439 8.62321 32.7223 8.07986C31.8955 7.85712 31.0586 7.65801 30.1912 7.43527C30.2477 7.38889 30.3101 7.3503 30.3768 7.32052C33.1847 6.61181 36.0196 6.17646 38.9185 6.64556C40.4203 6.89192 41.8378 7.35427 42.9143 8.52534L42.9379 8.54221L43.0088 8.60296C44.2899 9.5522 45.1861 10.9312 45.5332 12.4874C45.7728 13.4695 45.9922 14.4549 46.1542 15.4505C46.3571 16.4292 46.3663 17.4381 46.1812 18.4203C46.1551 18.6056 46.0927 18.7839 45.9977 18.9451C45.9027 19.1063 45.7768 19.2472 45.6273 19.3597C45.4778 19.4722 45.3076 19.5541 45.1264 19.6008C44.9452 19.6476 44.7566 19.6581 44.5714 19.6319C44.1929 19.6073 43.82 19.5277 43.4644 19.3957C42.6376 19.1088 41.9188 18.6127 41.1459 18.2212C40.3731 17.8297 40.0693 17.8837 39.5462 18.5317C38.8129 19.4393 38.2421 20.4669 37.8588 21.569C37.6954 21.9839 37.6476 22.4352 37.7205 22.8751L39.931 25.4366Z" fill="black"/>
<path d="M39.931 25.4366C39.1953 24.5861 38.4618 23.7346 37.7306 22.8818C35.7994 21.1745 33.9948 19.3293 32.3309 17.3606C31.6189 16.5716 31.0193 15.688 30.549 14.735C30.0529 13.6449 30.3228 12.7911 31.3454 12.1938C31.6083 12.0491 31.8787 11.9184 32.1554 11.8023C32.5975 11.6032 33.1071 11.5863 33.5289 11.3231C32.2339 10.7328 30.7691 10.6309 29.4049 11.0362C28.086 11.4076 26.8632 12.0605 25.8208 12.9497C24.1604 14.2997 23.6542 16.0478 24.1098 18.093C24.3831 19.3113 24.7274 20.5127 24.9974 21.7277C25.442 23.5347 25.2575 25.4393 24.4743 27.1274C23.5698 29.0274 23.6542 30.9173 24.0085 32.8646C24.4945 35.4574 25.27 37.9875 26.3203 40.4073C27.4533 43.1593 28.2203 46.0481 28.6017 48.9996C29.1384 52.5229 29.3305 56.0901 29.1754 59.6506C28.9459 64.2235 28.0246 68.6209 25.6285 72.5998C24.4724 74.5576 22.8491 76.1983 20.9037 77.3752C20.4566 77.6749 19.9611 77.8952 19.439 78.0265C18.5244 78.2155 17.9912 77.8038 17.9777 76.8656C17.9777 75.7114 17.9777 74.5538 17.9575 73.3963C17.9575 72.8057 17.8495 72.7213 17.3264 73.0588C15.3015 74.2771 14.3127 76.0489 14.4949 78.4585C14.656 79.8888 14.9108 81.3071 15.2576 82.704C15.3724 83.2575 15.5074 83.8076 15.639 84.3611C16.044 86.0755 17.1171 87.3377 18.4165 88.4446C18.6561 88.6505 18.9125 88.8361 19.1657 89.0251C19.2296 89.0583 19.2797 89.1132 19.3069 89.18C19.3341 89.2468 19.3367 89.3211 19.3141 89.3896C19.2602 89.5347 19.1319 89.5347 19.0003 89.5482C18.5008 89.6022 18.4435 89.6832 18.6966 90.1219C19.3106 91.0999 20.0328 92.0056 20.8497 92.8218C21.0421 93.031 21.2513 93.2267 21.4437 93.4394C21.5213 93.5271 21.6259 93.625 21.5483 93.7768C21.4707 93.9287 21.3559 93.9186 21.2108 93.9355C20.627 93.9962 20.5662 94.0907 20.8463 94.6104C21.4673 95.7815 22.3582 96.7534 23.2256 97.7389C23.7791 98.3666 24.3123 99.0112 24.913 99.5815C24.9906 99.6524 25.1594 99.7165 25.021 99.8785C26.2022 99.9561 27.3834 100.03 28.5578 100.111C30.6164 100.246 32.6683 100.192 34.7236 100.165C35.8778 100.149 37.0522 100.041 38.0984 99.4229C38.1066 99.2174 38.0683 99.0127 37.9865 98.824C37.9047 98.6353 37.7815 98.4674 37.626 98.3329C37.0572 97.8077 36.4311 97.348 35.7597 96.9627C35.6382 96.8884 35.483 96.8513 35.3952 96.6252C35.7184 96.7329 36.0608 96.7702 36.3995 96.7347C36.7383 96.6992 37.0656 96.5916 37.3594 96.4193C37.6122 96.2987 37.812 96.0894 37.9209 95.8313C38.0297 95.5732 38.0401 95.284 37.95 95.0188C37.709 94.1486 37.3197 93.3266 36.7991 92.5889C34.9252 89.7782 32.8582 87.1011 30.6131 84.5771C30.5648 84.5397 30.5252 84.4923 30.4971 84.4382C30.4689 84.384 30.4528 84.3244 30.45 84.2635C30.4471 84.2025 30.4574 84.1416 30.4804 84.0851C30.5033 84.0285 30.5382 83.9776 30.5827 83.9358C31.0822 83.2609 31.5547 82.5859 32.0305 81.8873C33.4311 79.8624 34.8181 77.8375 36.7249 76.2142C37.0016 75.9814 37.2581 75.7215 37.5247 75.4752C37.5776 74.8781 37.6907 74.2879 37.8622 73.7135C38.4472 71.0406 38.9433 68.3509 39.3505 65.6443C39.5969 64.0142 39.877 62.3876 40.093 60.7542C40.3191 59.0229 40.4878 57.2848 40.6768 55.5502C40.8658 53.8155 41.0514 52.0167 41.1662 50.2416C41.2404 49.0941 41.2944 47.9433 41.3653 46.7959C41.4159 45.9758 41.4496 45.1557 41.4294 44.3356C41.3754 42.3107 41.237 40.3095 41.0919 38.2981C40.9907 37.0122 40.8692 35.7264 40.7713 34.4373C40.6667 33.0299 40.4743 31.626 40.3258 30.2187C40.2212 29.2333 40.1267 28.2478 40.0221 27.2624C39.9782 26.8405 39.9175 26.422 39.8635 26.0002C39.8365 25.7943 39.7589 25.602 39.931 25.4366Z" fill="#E5E5E5"/>
<path d="M37.545 75.4515C37.2784 75.6979 37.0219 75.9577 36.7451 76.1906C34.8384 77.8004 33.4513 79.8388 32.0507 81.8637C31.5749 82.5387 31.1024 83.244 30.6029 83.9122C30.5584 83.954 30.5235 84.0049 30.5006 84.0614C30.4777 84.118 30.4673 84.1789 30.4702 84.2398C30.4731 84.3008 30.4892 84.3604 30.5173 84.4145C30.5455 84.4687 30.5851 84.5161 30.6333 84.5534C32.8785 87.0775 34.9455 89.7545 36.8194 92.5653C37.3399 93.303 37.7292 94.125 37.9702 94.9951C38.0603 95.2604 38.05 95.5495 37.9411 95.8077C37.8322 96.0658 37.6325 96.2751 37.3796 96.3957C37.0858 96.568 36.7585 96.6755 36.4198 96.711C36.081 96.7466 35.7386 96.7092 35.4154 96.6016C35.5032 96.8175 35.6584 96.8547 35.7799 96.939C36.4514 97.3244 37.0774 97.784 37.6462 98.3092C37.8017 98.4438 37.9249 98.6117 38.0067 98.8004C38.0885 98.9891 38.1268 99.1938 38.1187 99.3993C39.8465 99.839 41.629 100.025 43.4104 99.9528C45.2227 99.8515 46.9236 99.3689 48.2769 98.1034C49.1712 97.2664 49.6268 96.1122 50.1297 95.012C50.6095 94.0372 50.9818 93.0131 51.24 91.9578C51.5295 90.8658 51.6367 89.7335 51.5573 88.6066C51.3176 86.5513 51.3176 84.5264 52.4617 82.6601C53.2811 81.3718 53.9343 79.985 54.4056 78.5327C54.687 77.6025 54.8636 76.6437 54.9321 75.6743C55.0165 74.5167 55.1481 73.3625 55.2189 72.2049C55.3303 70.3117 55.0164 68.604 53.9129 67.0617C53.5383 66.5386 53.2649 65.9075 52.7384 65.5093C52.7384 65.57 52.4786 65.678 52.4853 65.7388C52.8228 68.199 51.8812 70.0349 49.7483 71.2499C47.6154 72.4648 45.2902 72.4918 42.9616 71.7426C41.2365 72.7338 39.5903 73.8564 38.0377 75.1005C37.8791 75.2187 37.707 75.33 37.545 75.4515Z" fill="#969696"/>
<path d="M33.5154 11.3298C33.0936 11.5931 32.584 11.6099 32.1419 11.809C31.8652 11.9252 31.5948 12.0559 31.3319 12.2005C30.3195 12.7979 30.0394 13.6517 30.5355 14.7418C31.0058 15.6948 31.6054 16.5783 32.3174 17.3674C33.9813 19.336 35.7859 21.1813 37.7171 22.8886C37.6442 22.4488 37.692 21.9974 37.8555 21.5825C38.2387 20.4804 38.8096 19.4528 39.5429 18.5452C40.066 17.9006 40.3866 17.8702 41.1425 18.2347C41.8985 18.5992 42.6342 19.1223 43.461 19.4092C43.8166 19.5412 44.1895 19.6208 44.568 19.6454C44.7553 19.674 44.9464 19.6649 45.1301 19.6187C45.3138 19.5724 45.4865 19.49 45.638 19.3763C45.7894 19.2625 45.9167 19.1197 46.0123 18.9561C46.1079 18.7925 46.1699 18.6115 46.1946 18.4237C46.3798 17.4415 46.3706 16.4325 46.1677 15.4539C46.0057 14.4414 45.7863 13.4728 45.5467 12.4908C45.1995 10.9346 44.3034 9.55558 43.0223 8.60634L42.9514 8.54559L42.9278 8.52872C40.8017 8.8257 38.878 9.48717 37.6395 11.4176C38.1659 12.3482 38.3688 13.427 38.2166 14.4853C38.1997 14.6254 38.1726 14.7642 38.1356 14.9004C37.9972 15.3357 37.7981 15.4066 37.4606 15.0995C36.928 14.5569 36.4372 13.9748 35.9925 13.3581C35.3452 12.4896 34.4946 11.7931 33.5154 11.3298Z" fill="#F5CB5C"/>
<path d="M37.6361 11.4175C38.8713 9.48715 40.7983 8.82568 42.9244 8.5287C41.8479 7.35763 40.4304 6.89528 38.9286 6.64892C36.0297 6.17307 33.1914 6.60842 30.387 7.32388C30.3202 7.35366 30.2578 7.39225 30.2013 7.43863C31.0687 7.66136 31.9056 7.86048 32.7325 8.08322C34.754 8.61982 36.4414 9.65589 37.6361 11.4175Z" fill="#E5E5E5"/>
<path d="M42.9485 8.56247L43.019 8.62289L42.9485 8.56247Z" fill="#E5E5E5"/>
<path d="M45.6986 65.7658C45.6986 65.7658 42.2731 64.21 43.758 61.6215C45.243 59.033 46.036 58.6888 47.0519 59.411C48.0677 60.1332 49.691 61.7734 49.8226 61.149C49.9542 60.5247 50.5819 60.8115 50.5819 60.8115C50.5819 60.8115 50.4368 62.9849 52.7384 65.5127C53.0962 65.9042 47.9462 68.1518 47.9462 68.1518L45.6986 65.7658Z" fill="#E6E6E6"/>
<path d="M42.9211 71.7595C42.9211 71.7595 42.8232 69.4578 41.7163 68.0269C40.6093 66.596 41.2944 62.8398 42.5701 61.4797C43.8458 60.1197 46.1373 58.5369 46.5963 57.403C47.0552 56.269 47.8281 54.6288 47.8281 54.6288L47.7066 58.7968C47.7066 58.7968 48.7966 60.7845 49.1038 60.3694C49.4109 59.9543 50.0723 56.485 50.0723 56.485L50.5819 60.798C50.5819 60.798 49.6707 62.8533 48.8101 61.6789C47.9496 60.5044 46.0529 58.5335 44.7941 60.879C43.5353 63.2245 44.379 64.8242 46.7549 65.0233C49.1308 65.2224 49.2556 66.7985 50.4064 66.7479C51.5573 66.6972 52.7384 65.4992 52.7384 65.4992C52.7384 65.4992 53.4607 68.4555 51.2299 70.4737C48.9991 72.4918 45.766 72.8225 42.9211 71.7595Z" fill="black"/>
<path d="M46.9068 61.0916C47.8045 61.4291 46.2858 62.6812 45.8943 62.256C45.5028 61.8307 46.3162 60.8723 46.9068 61.0916Z" fill="black"/>
</svg>
