<svg xmlns="http://www.w3.org/2000/svg" width="448" height="93" fill="none" viewBox="0 0 448 93"><path fill="#6C9BEE" d="M37.7843 33.4089C40.5758 33.4089 42.41 40.4912 43.2833 54.652L35.9158 56.1876V57.7232C39.6148 57.7232 41.4681 58.7288 41.4681 60.7441V65.3006C41.4681 67.3158 37.7843 68.3215 30.4168 68.3215V80.498L26.733 83.5189C10.7891 83.0431 2.81519 81.523 2.81519 78.9624V65.2967L1 34.9445L2.81519 33.4089H37.7843ZM8.36755 37.9615V77.4229H15.6855L24.9216 78.9585C24.9216 68.8243 28.5863 63.7573 35.9234 63.7573V60.7363C29.799 60.7363 26.7406 58.7056 26.7406 54.6442L37.792 53.1589V45.5312L35.9234 37.9577H8.36755V37.9615Z"/><path fill="#6C9BEE" d="M51.4098 33.7648H77.6995C87.5573 33.7648 93.041 39.3424 94.1507 50.5016V51.8825C94.1507 57.6497 91.4088 62.7516 85.9251 67.1882V71.385C85.9251 73.2262 87.5725 74.1506 90.8711 74.1506L92.4842 75.5857V81.1633L89.2047 83.9289H76.0865C73.3294 83.9289 70.5875 79.2873 67.8609 70.008H66.1944C66.1944 76.4908 65.1 79.7322 62.9149 79.7322H51.4098C48.1111 79.7322 46.4637 67.6717 46.4637 43.547V37.9693L51.4098 33.7648ZM53.0228 37.9616L51.4098 44.924V75.5818H61.2484C61.2484 69.6096 62.8958 66.3527 66.1944 65.8073H67.8609C70.5875 65.8073 73.3255 70.4489 76.0865 79.7283H87.5916V76.9665C83.1833 76.9665 80.9829 73.2494 80.9829 65.8073C86.4666 62.2256 89.2085 58.5045 89.2085 54.6481V51.8825C89.2085 42.6032 85.3722 37.9616 77.7034 37.9616H53.0228ZM66.1944 51.8864C72.7879 52.4666 76.0865 53.8668 76.0865 56.0832C74.5382 60.7248 70.6867 63.0456 64.5318 63.0456L62.9187 61.6105V54.6481L66.1944 51.8864ZM67.8609 56.0832V58.8449H71.1404V56.0832H67.8609Z"/><path fill="#6C9BEE" d="M123.365 33.7648H126.492C137.929 33.7648 143.649 46.065 143.649 70.6694C143.649 79.5078 133.776 83.9251 114.03 83.9251C102.594 83.9251 96.8734 78.0225 96.8734 66.2135C96.8734 45.5699 101.549 35.2462 110.903 35.2462L123.365 33.7648ZM101.568 64.732C101.568 74.5954 105.202 79.5233 112.467 79.5233H118.724C130.634 79.5233 137.376 77.0516 138.958 72.1006C138.958 52.0372 135.847 40.7272 129.623 38.1666H117.161C107.807 38.1666 103.131 43.0983 103.131 52.9578L101.568 64.732ZM120.288 57.3635H128.06L132.754 61.8156V66.2173L128.06 70.6694H121.802L117.161 66.2173V60.3302L120.288 57.3635ZM121.802 61.8156V67.7027H126.496L128.06 66.2173H129.623L128.06 61.8156H121.802Z"/><path fill="#6C9BEE" d="M180.59 33.4089C189.57 34.0239 194.063 35.5053 194.063 37.8609V57.1584L190.68 60.1793H178.923V61.6647C178.923 63.2351 183.415 65.2155 192.396 67.6021L194.063 75.0248V77.9954C192.247 81.9524 188.327 83.9328 182.306 83.9328H152.031L148.648 80.9621V76.5101L152.031 73.5433H170.549V72.058C154.838 72.058 146.982 64.6198 146.982 49.7435C146.982 38.8512 158.186 33.4089 180.59 33.4089ZM152.027 55.6731C153.408 65.6023 161.244 70.5688 175.541 70.5688V73.5356L172.212 76.5023H153.694V80.9544H175.545C183.82 80.9544 188.312 79.4691 189.017 76.5023V72.0503C189.017 70.3097 183.972 67.838 173.878 64.6276V60.1755C174.988 57.1739 178.351 55.6731 183.968 55.6731H189.014V40.8277L185.631 37.8609H175.541C159.864 37.8609 152.027 42.313 152.027 51.221V55.6731Z"/><path fill="#6C9BEE" d="M201.632 33.4089H219.898L223.178 36.4801V55.0078H226.507V38.0157L229.836 34.9445H241.441C244.77 34.9445 246.436 44.1929 246.436 62.6858V79.678C246.436 81.964 240.346 83.4996 228.17 84.2848L224.841 71.9497H221.561V79.678L218.232 82.7492H201.632L198.303 79.678V36.4801L201.632 33.4089ZM203.295 38.0157V78.1424H214.899C217.118 78.1424 218.228 75.5663 218.228 70.4141L219.895 68.8785H226.503C228.723 68.8785 229.832 71.4391 229.832 76.5565L231.499 78.1424H243.103L239.774 39.5513H229.832V56.5434L226.503 59.6146H221.557L218.228 56.5434V38.0157H203.295Z"/><path fill-rule="evenodd" stroke="#fff" stroke-width=".5" d="M35.9158 37.9686L37.7843 45.541V53.1675L26.733 54.6526C26.733 58.7134 29.7952 60.7438 35.9158 60.7438V63.7643C28.5825 63.7643 24.914 68.8306 24.914 78.9632L15.6817 77.4278H8.36373V37.9686H35.9158ZM2.81519 33.4166L1 34.952L2.81519 65.2996V78.9632C2.81519 81.5234 10.7891 83.0395 26.733 83.519L30.4168 80.4986V68.3162C37.7843 68.3162 41.4681 67.3107 41.4681 65.2957V60.7399C41.4681 58.7289 39.6186 57.7195 35.9196 57.7195V56.1841L43.2871 54.6487C42.41 40.4901 40.5796 33.4089 37.7882 33.4089H2.81519V33.4166Z" clip-rule="evenodd"/><path fill-rule="evenodd" stroke="#fff" stroke-width=".5" d="M71.1404 58.8488H67.8609V56.0836H71.1404V58.8488ZM62.9149 54.6527V61.614L64.528 63.045C70.6828 63.045 74.5344 60.7245 76.0827 56.0836C76.0827 53.8676 72.784 52.4676 66.1944 51.8875L62.9149 54.6527ZM77.6995 37.9686C85.3684 37.9686 89.2047 42.6095 89.2047 51.8875V54.6527C89.2047 58.5085 86.4628 62.2251 80.9791 65.8102C80.9791 73.2472 83.1833 76.9677 87.5878 76.9677V79.7329H76.0827C73.3255 70.4549 70.5837 65.814 67.8571 65.814H66.1906C62.892 66.3593 61.2446 69.6196 61.2446 75.587H51.4059V44.9339L53.019 37.9725H77.6995V37.9686ZM46.4637 37.9686V43.5455C46.4637 67.6665 48.1111 79.7251 51.4098 79.7251H62.9149C65.1 79.7251 66.1944 76.4842 66.1944 70.0025H67.8609C70.5875 79.2843 73.3294 83.9213 76.0865 83.9213H89.2047L92.4842 81.1561V75.5793L90.8711 74.1445C87.5725 74.1445 85.9251 73.224 85.9251 71.3793V67.1831C91.4088 62.7472 94.1507 57.6461 94.1507 51.8797V50.4991C93.041 39.3416 87.5573 33.7648 77.6995 33.7648H51.4098L46.4637 37.9686Z" clip-rule="evenodd"/><path fill-rule="evenodd" stroke="#fff" stroke-width=".5" d="M128.06 61.819L129.623 66.2202H128.06L126.496 67.7052H121.802V61.819H128.06ZM117.161 60.3339V66.2202L121.802 70.6716H128.06L132.754 66.2202V61.819L128.06 57.3676H120.288L117.161 60.3339ZM103.131 52.9626C103.131 43.1046 107.807 38.1736 117.157 38.1736H129.619C135.843 40.7339 138.955 52.0422 138.955 72.1025C137.372 77.0489 130.63 79.5241 118.721 79.5241H112.463C105.198 79.5241 101.564 74.5931 101.564 64.7351L103.131 52.9626ZM110.903 35.2576C101.549 35.2576 96.8734 45.5797 96.8734 66.2202C96.8734 78.0235 102.594 83.9252 114.03 83.9252C133.776 83.9252 143.649 79.5086 143.649 70.6716C143.649 46.0748 137.929 33.7764 126.492 33.7764H123.365L110.903 35.2576Z" clip-rule="evenodd"/><path fill-rule="evenodd" stroke="#fff" stroke-width=".5" d="M152.027 51.226C152.027 42.3232 159.864 37.868 175.541 37.868H185.631L189.014 40.8381V55.6774H183.968C178.351 55.6774 174.988 57.178 173.874 60.1791V64.6305C183.968 67.8366 189.014 70.3117 189.014 72.0521V76.5035C188.308 79.4698 183.816 80.9549 175.541 80.9549H153.69V76.5035H172.208L175.537 73.5372V70.5708C161.24 70.5708 153.4 65.6051 152.023 55.6774V51.226H152.027ZM146.982 49.7409C146.982 64.615 154.838 72.0521 170.549 72.0521V73.5372H152.031L148.648 76.5035V80.9549L152.031 83.925H182.306C188.327 83.925 192.247 81.9449 194.063 77.9885V75.0222L192.396 67.6007C183.415 65.2145 178.923 63.2344 178.923 61.6642V60.1791H190.68L194.059 57.1586V37.8641C194.059 35.5088 189.566 34.0276 180.586 33.4127C158.186 33.4166 146.982 38.858 146.982 49.7409Z" clip-rule="evenodd"/><path fill-rule="evenodd" stroke="#fff" stroke-width=".5" d="M218.232 38.0228V56.5477L221.561 59.6185H226.507L229.836 56.5477V39.5582H239.778L243.107 78.1434H231.503L229.836 76.5578C229.836 71.4412 228.727 68.8809 226.507 68.8809H219.895L218.228 70.4163C218.228 75.5677 217.119 78.1434 214.899 78.1434H203.295V38.0228H218.232ZM198.299 36.4874V79.6788L201.628 82.7495H218.232L221.561 79.6788V71.9517H224.841L228.17 84.2849C240.346 83.4998 246.436 81.9644 246.436 79.6788V62.6892C246.436 44.1991 244.77 34.9521 241.441 34.9521H229.836L226.507 38.0228V55.0124H223.178V36.4874L219.899 33.4167H201.632L198.299 36.4874Z" clip-rule="evenodd"/><path fill="#6C9BEE" d="M342.911 33.4089C344.943 33.4089 347.492 49.8402 350.558 82.6989L349.01 84.2848H338.315C336.25 84.2848 335.219 82.6989 335.219 79.5233H330.623C330.623 82.6989 329.105 84.2848 326.076 84.2848C312.783 84.2848 306.137 82.6989 306.137 79.5233C312.564 49.8363 316.646 34.9948 318.38 34.9948L342.911 33.4089ZM310.729 77.9374L327.568 81.1092C327.568 77.9374 328.584 76.3476 330.615 76.3476H336.763L341.359 79.5194H347.507C343.674 51.9482 340.611 38.1627 338.312 38.1627H335.215C323.988 38.1627 318.376 40.8084 318.376 46.0959L310.729 77.9374ZM335.215 60.4347L338.312 71.5397L336.763 73.1759H330.615C330.619 65.3316 332.149 61.0845 335.215 60.4347Z"/><path fill="#6C9BEE" d="M376.193 33.5134C389.217 34.7434 395.732 36.6697 395.732 39.2961V55.1626C395.732 57.0734 390.735 58.0288 380.739 58.0288L377.741 62.3803C379.24 66.2367 380.739 68.163 382.239 68.163C382.239 62.3958 383.239 59.5141 385.237 59.5141H397.231L400.229 62.3803V79.6819C400.229 82.5829 392.216 84.0334 376.193 84.0334H367.197C358.202 82.7724 353.704 78.4364 353.704 71.033V65.2504C353.704 44.0885 361.2 33.5134 376.193 33.5134ZM358.202 65.2465V73.9495C358.202 77.2953 363.198 79.7012 373.194 81.1672L392.733 79.6819H395.732V63.8153H385.237V65.2504C390.233 65.2504 392.733 66.2212 392.733 68.1668V69.6019L389.735 72.4681H385.237C377.208 71.5127 373.194 68.1514 373.194 62.3842C374.595 57.5724 378.107 55.1665 383.738 55.1665H391.234V39.2999L376.193 37.8649H374.693C363.7 37.8649 358.202 46.9895 358.202 65.2465ZM383.738 68.163V69.598H388.235V68.163H383.738Z"/><path fill="#6C9BEE" d="M409.474 34.5886H444.202L447.65 37.6598V56.1875C447.65 58.2337 445.335 59.2587 440.705 59.2587L442.453 60.7943V71.5938C445.916 71.5938 447.65 72.6188 447.65 74.665V80.8577L444.202 83.9289H411.17C407.703 83.9289 405.973 70.5688 405.973 43.8525V37.6598L409.474 34.5886ZM412.922 39.1915L411.173 80.8538H412.922L432.012 79.3182H442.457V76.1967C435.493 76.1967 432.012 75.1717 432.012 73.1255V68.5187H438.956V63.8617C433.194 63.8617 430.312 62.8366 430.312 60.7905V59.2549C430.312 57.2087 434.361 55.6731 442.457 54.6481V39.1915H412.922Z"/><path fill-rule="evenodd" stroke="#fff" stroke-width=".5" d="M330.622 73.1797H336.77L338.318 71.5436L335.222 60.4385C332.152 61.0845 330.622 65.3316 330.622 73.1797ZM318.379 46.1037C318.379 40.8161 323.991 38.1704 335.218 38.1704H338.315C340.614 38.1704 343.677 51.956 347.51 79.5271H341.362L336.766 76.3554H330.618C328.587 76.3554 327.571 77.9413 327.571 81.1169L310.732 77.9451L318.379 46.1037ZM318.379 34.9948C316.646 34.9948 312.564 49.8363 306.137 79.5233C306.137 82.6989 312.783 84.2848 326.076 84.2848C329.108 84.2848 330.622 82.6989 330.622 79.5233H335.218C335.218 82.6989 336.249 84.2848 338.315 84.2848H349.009L350.557 82.6989C347.491 49.8402 344.942 33.4089 342.91 33.4089L318.379 34.9948Z" clip-rule="evenodd"/><path fill-rule="evenodd" stroke="#fff" stroke-width=".5" d="M388.237 69.598H383.74V68.1669H388.237V69.598ZM374.695 37.8649H376.195L391.236 39.2961V55.1626H383.74C378.109 55.1626 374.593 57.5685 373.196 62.3803C373.196 68.1475 377.21 71.5088 385.239 72.4642H389.736L392.735 69.598V68.1669C392.735 66.2213 390.235 65.2504 385.239 65.2504V63.8192H395.733V79.6858H392.735L373.196 81.1711C363.204 79.7051 358.204 77.2992 358.204 73.9534V65.2543C358.204 46.9895 363.703 37.8649 374.695 37.8649ZM353.707 65.2465V71.0292C353.707 78.4326 358.204 82.7686 367.199 84.0296H376.195C392.217 84.0296 400.231 82.5791 400.231 79.6781V62.3803L397.232 59.5141H385.239C383.241 59.5141 382.24 62.3997 382.24 68.163C380.741 68.163 379.242 66.2367 377.743 62.3803L380.741 58.0288C390.737 58.0288 395.733 57.0734 395.733 55.1626V39.2961C395.733 36.6697 389.219 34.7395 376.195 33.5134C361.203 33.5134 353.707 44.0924 353.707 65.2465Z" clip-rule="evenodd"/><path fill-rule="evenodd" stroke="#fff" stroke-width=".5" d="M442.453 39.1954V54.6519C434.357 55.6769 430.309 57.2087 430.309 59.2587V60.7943C430.309 62.8405 433.19 63.8655 438.953 63.8655V68.5226H432.008V73.1294C432.008 75.1756 435.49 76.2006 442.453 76.2006V79.3221H432.008L412.919 80.8577H411.171L412.919 39.1954H442.453ZM405.974 37.6598V43.8525C405.974 70.5688 407.708 83.9289 411.171 83.9289H444.202L447.65 80.8577V74.665C447.65 72.6188 445.916 71.5938 442.453 71.5938V60.7943L440.705 59.2587C445.335 59.2587 447.65 58.2337 447.65 56.1875V37.6598L444.202 34.5886H409.475L405.974 37.6598Z" clip-rule="evenodd"/><path fill="#000" fill-rule="evenodd" d="M301.476 8.58959C296.94 7.65396 291.111 6.2731 286.625 8.14887C281.704 10.2069 278.258 14.4064 272.918 16.0698C264.163 18.7966 252.916 20.414 246.179 27.4913C241.035 32.8951 232.294 51.6859 241.504 55.996C239.979 50.5971 241.74 48.1197 242.646 42.8593C244.867 45.0337 243.988 47.4777 244.664 50.2844C245.889 55.3706 247.032 58.522 245.85 63.9923C244.592 69.8131 240.826 76.5193 241.791 82.7185C242.274 85.8278 251.864 86.3247 253.48 84.2099C254.774 82.5136 253.106 79.7456 254.069 77.7001C254.687 80.2033 256.236 83.1997 256.38 85.6964C256.488 87.5655 255.304 89.4525 256.865 91.0639C258.618 92.873 268.117 92.9387 269.004 90.1814C269.792 87.7354 266.968 85.6757 266.541 83.4118C265.633 78.5933 266.545 71.1903 267.206 66.2769C272.903 66.9973 276.629 66.112 282.056 64.5634C282.04 70.5556 283.283 73.797 284.707 79.4136C285.042 80.7366 284.13 82.3829 284.953 83.5674C286.77 86.1833 295.775 85.9506 297.35 83.1869C299.015 80.2654 293.901 75.3734 294.622 71.4174H295.193C296.685 75.9167 299.844 79.0702 300.626 83.9829C300.947 86.0005 299.402 88.2538 301.097 89.893C302.911 91.6479 313.509 93.043 314.094 89.6103C314.5 87.2328 311.375 84.6612 310.943 82.2694C310.435 79.46 312.587 77.1283 312.016 74.2732C310.421 66.284 304.475 61.2443 307.187 53.1402C312.967 52.951 314.826 41.5765 315.755 36.5765H316.897C318.826 42.7039 321.932 45.815 325.343 50.9148C328.201 55.1878 329.792 59.1095 334.603 61.7619C340.288 64.8954 350.94 62.1188 347.169 54.2825C341.229 56.7763 338.532 57.596 335.174 50.8555C337.941 50.0573 340.347 47.9163 343.17 47.4777C349.295 46.5261 355.269 48.4845 360.177 43.3248C366.241 36.9506 364.648 22.2748 354.594 21.1551C356.384 24.5094 359.98 26.4149 361.083 30.2937C363.44 38.5893 354.444 44.7207 347.169 43.4304C349.673 39.1393 356.152 26.3392 348.311 24.011C349.575 28.6445 349.822 41.3034 342.027 41.5422C339.299 41.6256 336.319 37.8171 334.702 36.0053C330.668 31.4848 332.431 27.9515 330.623 22.8686C328.958 18.1898 325.401 14.1859 323.218 9.73192C322.09 7.42856 322.848 4.95429 320.811 3.03705C315.799 -1.67846 298.692 -1.6679 301.476 8.58959Z" clip-rule="evenodd"/></svg>