<svg xmlns="http://www.w3.org/2000/svg" width="328" height="151" fill="none" viewBox="0 0 328 151"><path fill="#D9E4F7" d="M144.875 0C141.524 4.47651 136.968 8.56132 133.022 12.758C125.546 20.7065 118.006 28.6203 110.586 36.5954C107.03 40.4191 102.554 44.1842 99.7738 48.3463C95.215 45.7376 89.8221 42.1431 84.4398 40.6243C77.6137 48.3276 71.694 56.5479 65.3145 64.4617C63.5177 66.6893 61.7878 68.9488 59.9937 71.1764C59.1675 72.2023 58.4001 73.5586 57.1381 74.3313C55.6488 75.2426 52.8869 75.16 51.0634 75.2079C47.4511 75.3065 43.8496 75.7915 40.24 75.8714C38.4138 75.9114 34.7855 75.7089 33.4032 76.7507C31.6546 78.0697 31.1279 80.8888 30.2936 82.5915C28.0504 87.1639 25.7964 91.7444 23.7028 96.3568C19.0131 106.69 14.0586 117.029 8.92768 127.245C7.36353 130.362 5.9812 133.528 4.41706 136.645C3.17376 139.123 1.52673 141.748 1 144.367C74.9667 144.367 148.944 144.032 222.908 144.032H292.367H314.468C318.947 144.032 323.58 143.757 328 144.367C327.69 143.214 326.668 143.451 325.294 143.024L317.626 140.674C314.273 139.635 311.056 138.356 307.704 137.317C306.768 137.026 305.407 137.018 304.546 136.645C303.664 136.262 303.22 135.441 302.741 134.967C301.142 133.379 299.38 132.19 297.779 130.602C292.172 125.036 286.247 119.379 280.64 113.815C278.544 111.734 276.338 109.77 274.324 107.772C273.723 107.175 272.822 106.767 272.52 106.093C271.354 103.487 271.164 100.716 270.263 98.0355L263.047 76.5482C262.252 74.1874 261.568 71.8079 260.793 69.4977C260.517 68.6797 260.694 67.073 259.891 66.4761C259.488 66.175 258.589 66.3056 258.087 66.1404C256.884 65.7433 255.686 65.5062 254.477 65.1332C248.37 63.2386 242.092 61.6559 235.985 59.7613C233.186 58.8927 230.044 58.5836 227.416 57.4112L227.868 57.0754C226.181 57.0754 226.266 54.7706 225.913 53.7181C224.809 50.4353 224.531 46.4091 222.756 43.3102C221.922 41.8553 218.119 42.8652 216.593 42.9745C214.058 43.1583 210.841 42.5961 208.475 43.4781C206.449 44.2321 204.66 46.1506 203.064 47.339C202.489 44.805 198.235 44.2108 196.748 41.9672C196.048 42.2284 196.229 42.0605 196.748 42.6387C195.286 42.0045 194.342 41.4263 193.59 40.2885C192.89 40.5497 193.072 40.3818 193.59 40.96C192.906 40.523 192.633 40.2246 192.238 39.6171C191.537 39.8782 191.719 39.7103 192.238 40.2885C191.438 39.8276 191.155 39.6544 190.885 38.9456C184.144 38.2368 182.211 33.2487 180.203 29.2092C177.251 23.2672 174.232 17.3411 171.23 11.4151C169.938 8.86774 169.045 5.32384 166.877 3.1229C165.61 1.8359 162.596 1.92117 160.663 1.72132C155.393 1.17775 150.15 0.495613 144.875 0Z"/><path fill="#D9E4F7" d="M80.898 82.9013C80.376 78.7273 81.737 73.8175 85.5616 72.1025C86.8134 71.5406 88.201 71.3801 89.5407 71.0884C94.4919 70.0075 98.9931 66.9706 101.862 62.7726"/><path fill="#D9E4F7" d="M81.2975 82.9014C80.8714 79.399 81.681 75.0244 84.8345 72.9588C85.788 72.3327 86.8747 72.033 87.98 71.8083C89.1146 71.5782 90.2492 71.3722 91.3545 71.0216C93.4053 70.3741 95.3575 69.4002 97.1101 68.1507C99.0943 66.7353 100.82 64.9908 102.205 62.9787C102.498 62.5533 101.806 62.152 101.515 62.5747C99.0383 66.1761 95.3442 68.9106 91.192 70.235C90.0681 70.5935 88.9201 70.8022 87.7669 71.0377C86.6403 71.2678 85.5243 71.5809 84.5415 72.1989C82.9648 73.1889 81.8755 74.7541 81.215 76.4772C80.4372 78.5027 80.2375 80.7582 80.4985 82.9041C80.5598 83.4098 81.3614 83.4151 81.2975 82.9014Z"/><path fill="#fff" d="M61.8388 95.7658C63.4395 88.0091 67.3334 80.7448 72.9025 75.134C74.0931 77.6063 77.0734 78.8986 79.7874 78.5695C82.5014 78.2378 84.9091 76.52 86.5897 74.3527C89.3995 70.7326 90.8777 65.5045 95.1897 63.982C96.4096 65.6035 97.8878 67.0269 99.555 68.1801C99.9998 68.4878 100.514 68.7901 101.049 68.7018C101.598 68.6109 101.992 68.1373 102.333 67.6931L118.862 46.3042"/><path fill="#D9E4F7" d="M62.2223 95.8728C63.4688 89.8767 66.0656 84.1937 69.773 79.3294C70.8224 77.9515 71.965 76.6484 73.1822 75.4176C72.9718 75.3909 72.764 75.3641 72.5536 75.3374C73.4379 77.1327 75.2037 78.3474 77.1187 78.805C79.1961 79.3026 81.3428 78.8745 83.1965 77.8444C85.0689 76.8036 86.5444 75.2223 87.7243 73.4511C88.8109 71.8216 89.6952 70.0691 90.7685 68.4316C91.9005 66.7085 93.3067 65.0844 95.2936 64.37C95.1418 64.3085 94.9927 64.2469 94.8435 64.1854C96.1512 65.9138 97.7519 67.5353 99.595 68.6884C100.045 68.9694 100.559 69.1781 101.097 69.0951C101.577 69.0202 101.973 68.7179 102.293 68.3647C103.097 67.4737 103.79 66.4516 104.525 65.5018C107.646 61.4616 110.768 57.4241 113.889 53.3839C115.639 51.1176 117.392 48.8541 119.142 46.5878C119.453 46.1838 118.891 45.6112 118.577 46.0206C115.618 49.8494 112.659 53.6755 109.703 57.5043C108.211 59.4361 106.717 61.3679 105.223 63.2997C104.49 64.2469 103.758 65.1968 103.025 66.1439C102.669 66.6041 102.317 67.0697 101.957 67.5245C101.686 67.867 101.35 68.2951 100.876 68.3112C100.311 68.3326 99.7628 67.8456 99.3366 67.5299C98.8546 67.1767 98.3938 66.7995 97.949 66.3981C97.0648 65.6035 96.2524 64.7232 95.5333 63.776C95.4321 63.6422 95.2617 63.5272 95.0832 63.5914C91.4823 64.8891 89.7591 68.552 87.9187 71.6316C86.888 73.3574 85.74 75.0083 84.142 76.2551C82.512 77.526 80.4745 78.3501 78.3864 78.1923C76.2717 78.0317 74.2049 76.8705 73.2461 74.9253C73.1316 74.6899 72.7906 74.6711 72.6175 74.8451C68.2469 79.2625 64.899 84.6646 62.8589 90.5456C62.2783 92.2152 61.8095 93.9222 61.4499 95.6561C61.3487 96.1644 62.1185 96.3785 62.2223 95.8728Z"/><path fill="#fff" d="M159.329 14.3574C159.026 18.8872 158.725 23.4759 159.574 27.9335C160.424 32.3911 162.573 36.7791 166.273 39.3851C169.088 41.3651 172.628 42.2159 175.193 44.5116C177.757 46.8073 178.983 50.208 180.29 53.4C182.16 57.9593 184.562 62.5721 188.64 65.3173"/><path fill="#D9E4F7" d="M158.93 14.3573C158.613 19.0771 158.296 23.8852 159.292 28.5515C160.091 32.2973 161.812 35.9951 164.667 38.6038C166.145 39.955 167.895 40.8754 169.69 41.7316C171.49 42.5905 173.363 43.4253 174.873 44.7604C177.907 47.4467 179.033 51.5859 180.618 55.1766C182.192 58.7432 184.2 62.2884 187.26 64.7847C187.641 65.0951 188.035 65.3894 188.443 65.665C188.869 65.954 189.271 65.261 188.845 64.972C185.609 62.778 183.465 59.3827 181.819 55.8963C180.152 52.3592 179.113 48.3778 176.554 45.341C175.275 43.8239 173.616 42.7724 171.863 41.8921C170.082 40.9985 168.215 40.2413 166.566 39.1015C163.428 36.9315 161.45 33.4291 160.429 29.809C159.175 25.3648 159.329 20.6718 159.617 16.1072C159.654 15.5239 159.692 14.9406 159.732 14.3573C159.764 13.8409 158.965 13.8436 158.93 14.3573Z"/><path fill="#fff" d="M233.164 64.1908C238.597 64.1961 244.03 64.2015 249.464 64.2042C250.838 64.2068 252.407 64.2951 253.267 65.3734C253.808 66.0477 253.925 66.9601 254.031 67.8189C255.179 77.2746 256.977 86.65 259.409 95.8541"/><path fill="#D9E4F7" d="M233.164 64.5922C236.653 64.5949 240.145 64.5975 243.634 64.6002C245.378 64.6002 247.123 64.6029 248.867 64.6056C250.092 64.6056 251.642 64.4825 252.657 65.3199C253.201 65.7694 253.411 66.441 253.531 67.1126C253.672 67.9019 253.739 68.7073 253.842 69.5019C254.063 71.1983 254.301 72.892 254.564 74.5803C255.084 77.9542 255.688 81.3148 256.375 84.6593C257.153 88.4507 258.037 92.2206 259.025 95.9612C259.156 96.4588 259.928 96.2474 259.795 95.7471C258 88.935 256.546 82.0345 255.446 75.0753C255.174 73.3495 254.921 71.621 254.695 69.8872C254.586 69.0551 254.49 68.2176 254.378 67.3855C254.279 66.6631 254.135 65.9086 253.709 65.2985C252.921 64.1668 251.541 63.8778 250.247 63.8189C248.577 63.7413 246.896 63.8002 245.224 63.8002C241.205 63.7975 237.183 63.7922 233.164 63.7895C232.65 63.7895 232.65 64.5922 233.164 64.5922Z"/><path fill="#6C9BEE" d="M26.7818 108.664C28.7383 108.664 30.0239 113.634 30.6359 123.572L25.4721 124.649V125.727C28.0647 125.727 29.3637 126.433 29.3637 127.847V131.045C29.3637 132.459 26.7818 133.165 21.6179 133.165V141.71L19.036 143.83C7.86106 143.496 2.27225 142.429 2.27225 140.632V131.042L1 109.741L2.27225 108.664H26.7818ZM6.16384 111.859V139.552H11.2929L17.7664 140.629C17.7664 133.517 20.335 129.961 25.4774 129.961V127.841C21.1849 127.841 19.0414 126.416 19.0414 123.566L26.7871 122.524V117.171L25.4774 111.856H6.16384V111.859Z"/><path fill="#6C9BEE" d="M36.3317 108.913H54.7579C61.6671 108.913 65.5106 112.828 66.2883 120.659V121.628C66.2883 125.675 64.3666 129.256 60.5231 132.369V135.315C60.5231 136.607 61.6778 137.255 63.9897 137.255L65.1203 138.262V142.177L62.8217 144.118H53.6273C51.6949 144.118 49.7731 140.86 47.8621 134.348H46.6941C46.6941 138.898 45.927 141.172 44.3955 141.172H36.3317C34.0197 141.172 32.8651 132.709 32.8651 115.778V111.864L36.3317 108.913ZM37.4623 111.859L36.3317 116.745V138.26H43.2275C43.2275 134.069 44.3821 131.783 46.6941 131.4H47.8621C49.7731 131.4 51.6922 134.658 53.6273 141.17H61.6911V139.232C58.6014 139.232 57.0592 136.623 57.0592 131.4C60.9027 128.887 62.8244 126.275 62.8244 123.569V121.628C62.8244 115.116 60.1356 111.859 54.7606 111.859H37.4623ZM46.6941 121.631C51.3153 122.038 53.6273 123.021 53.6273 124.576C52.5422 127.833 49.8426 129.462 45.5287 129.462L44.3982 128.455V123.569L46.6941 121.631ZM47.8621 124.576V126.514H50.1607V124.576H47.8621Z"/><path fill="#6C9BEE" d="M86.7646 108.913H88.9563C96.972 108.913 100.981 117.545 100.981 134.812C100.981 141.015 94.0613 144.115 80.2216 144.115C72.2059 144.115 68.1967 139.973 68.1967 131.685C68.1967 117.198 71.4736 109.953 78.0299 109.953L86.7646 108.913ZM71.4869 130.646C71.4869 137.568 74.0341 141.026 79.1258 141.026H83.5118C91.859 141.026 96.5845 139.291 97.6937 135.817C97.6937 121.737 95.5127 113.799 91.1507 112.002H82.416C75.8596 112.002 72.5828 115.463 72.5828 122.383L71.4869 130.646ZM84.6077 125.474H90.0548L93.345 128.599V131.688L90.0548 134.812H85.6688L82.416 131.688V127.556L84.6077 125.474ZM85.6688 128.599V132.73H88.959L90.0548 131.688H91.1507L90.0548 128.599H85.6688Z"/><path fill="#6C9BEE" d="M126.873 108.664C133.167 109.095 136.316 110.135 136.316 111.788V125.331L133.945 127.451H125.705V128.493C125.705 129.595 128.853 130.985 135.148 132.66L136.316 137.869V139.954C135.043 142.73 132.296 144.12 128.075 144.12H106.856L104.485 142.036V138.911L106.856 136.829H119.835V135.787C108.823 135.787 103.317 130.567 103.317 120.127C103.317 112.483 111.17 108.664 126.873 108.664ZM106.853 124.288C107.821 131.256 113.314 134.742 123.334 134.742V136.824L121 138.906H108.021V142.03H123.336C129.136 142.03 132.285 140.988 132.779 138.906V135.781C132.779 134.56 129.243 132.825 122.168 130.572V127.448C122.946 125.341 125.304 124.288 129.241 124.288H132.777V113.87L130.406 111.788H123.334C112.346 111.788 106.853 114.912 106.853 121.164V124.288Z"/><path fill="#6C9BEE" d="M141.621 108.664H154.424L156.722 110.819V123.821H159.056V111.897L161.389 109.741H169.522C171.856 109.741 173.024 116.232 173.024 129.21V141.134C173.024 142.739 168.755 143.816 160.221 144.367L157.888 135.711H155.589V141.134L153.256 143.29H141.621L139.288 141.134V110.819L141.621 108.664ZM142.786 111.897V140.057H150.92C152.475 140.057 153.253 138.249 153.253 134.633L154.421 133.555H159.053C160.609 133.555 161.386 135.352 161.386 138.944L162.554 140.057H170.688L168.354 112.974H161.386V124.899L159.053 127.054H155.586L153.253 124.899V111.897H142.786Z"/><path fill-rule="evenodd" stroke="#fff" stroke-width=".5" d="M25.4721 111.863L26.7818 117.178V122.53L19.036 123.572C19.036 126.422 21.1823 127.847 25.4721 127.847V129.966C20.3323 129.966 17.7611 133.522 17.7611 140.633L11.2903 139.555H6.16117V111.863H25.4721ZM2.27225 108.669L1 109.746L2.27225 131.044V140.633C2.27225 142.429 7.86106 143.493 19.036 143.83L21.6179 141.71V133.161C26.7818 133.161 29.3637 132.455 29.3637 131.041V127.844C29.3637 126.433 28.0674 125.724 25.4748 125.724V124.647L30.6386 123.569C30.0239 113.633 28.7409 108.664 26.7844 108.664H2.27225V108.669Z" clip-rule="evenodd"/><path fill-rule="evenodd" stroke="#fff" stroke-width=".5" d="M50.1607 126.517H47.8621V124.576H50.1607V126.517ZM44.3955 123.572V128.457L45.5261 129.462C49.84 129.462 52.5395 127.833 53.6246 124.576C53.6246 123.021 51.3127 122.039 46.6941 121.632L44.3955 123.572ZM54.7579 111.864C60.1329 111.864 62.8217 115.12 62.8217 121.632V123.572C62.8217 126.278 60.9 128.886 57.0565 131.402C57.0565 136.621 58.6014 139.232 61.6885 139.232V141.173H53.6246C51.6922 134.662 49.7705 131.405 47.8594 131.405H46.6914C44.3794 131.788 43.2248 134.076 43.2248 138.263H36.329V116.752L37.4596 111.866H54.7579V111.864ZM32.8651 111.864V115.777C32.8651 132.705 34.0197 141.167 36.3317 141.167H44.3955C45.927 141.167 46.6941 138.893 46.6941 134.344H47.8621C49.7731 140.858 51.6949 144.112 53.6273 144.112H62.8217L65.1203 142.172V138.258L63.9897 137.251C61.6778 137.251 60.5231 136.605 60.5231 135.31V132.366C64.3666 129.253 66.2883 125.673 66.2883 121.626V120.657C65.5106 112.827 61.6671 108.913 54.7579 108.913H36.3317L32.8651 111.864Z" clip-rule="evenodd"/><path fill-rule="evenodd" stroke="#fff" stroke-width=".5" d="M90.0548 128.601L91.1507 131.69H90.0548L88.959 132.732H85.6688V128.601H90.0548ZM82.416 127.559V131.69L85.6688 134.814H90.0548L93.345 131.69V128.601L90.0548 125.477H84.6077L82.416 127.559ZM72.5828 122.386C72.5828 115.468 75.8596 112.007 82.4133 112.007H91.148C95.51 113.804 97.691 121.74 97.691 135.818C96.5818 139.289 91.8563 141.026 83.5091 141.026H79.1231C74.0314 141.026 71.4843 137.566 71.4843 130.648L72.5828 122.386ZM78.0299 109.961C71.4736 109.961 68.1967 117.205 68.1967 131.69C68.1967 139.973 72.2059 144.115 80.2216 144.115C94.0613 144.115 100.981 141.016 100.981 134.814C100.981 117.552 96.972 108.922 88.9563 108.922H86.7646L78.0299 109.961Z" clip-rule="evenodd"/><path fill-rule="evenodd" stroke="#fff" stroke-width=".5" d="M106.853 121.167C106.853 114.92 112.346 111.793 123.334 111.793H130.406L132.777 113.877V124.291H129.241C125.304 124.291 122.946 125.344 122.166 127.45V130.574C129.241 132.824 132.777 134.561 132.777 135.783V138.907C132.282 140.988 129.134 142.03 123.334 142.03H108.019V138.907H120.998L123.331 136.825V134.743C113.311 134.743 107.816 131.258 106.851 124.291V121.167H106.853ZM103.317 120.125C103.317 130.563 108.823 135.783 119.835 135.783V136.825H106.856L104.485 138.907V142.03L106.856 144.115H128.075C132.296 144.115 135.043 142.725 136.316 139.949V137.867L135.148 132.659C128.853 130.984 125.705 129.595 125.705 128.493V127.45H133.945L136.313 125.331V111.79C136.313 110.137 133.164 109.098 126.87 108.666C111.17 108.669 103.317 112.488 103.317 120.125Z" clip-rule="evenodd"/><path fill-rule="evenodd" stroke="#fff" stroke-width=".5" d="M153.256 111.902V124.902L155.589 127.057H159.056L161.389 124.902V112.979H168.357L170.69 140.057H162.557L161.389 138.945C161.389 135.354 160.611 133.557 159.056 133.557H154.421L153.253 134.635C153.253 138.25 152.475 140.057 150.92 140.057H142.786V111.902H153.256ZM139.285 110.824V141.135L141.618 143.29H153.256L155.589 141.135V135.712H157.888L160.221 144.367C168.755 143.816 173.024 142.739 173.024 141.135V129.212C173.024 116.236 171.856 109.747 169.522 109.747H161.389L159.056 111.902V123.824H156.722V110.824L154.424 108.669H141.621L139.285 110.824Z" clip-rule="evenodd"/><path fill="#6C9BEE" d="M240.642 108.664C242.066 108.664 243.853 120.195 246.002 143.254L244.917 144.367H237.421C235.973 144.367 235.251 143.254 235.251 141.026H232.029C232.029 143.254 230.965 144.367 228.843 144.367C219.526 144.367 214.867 143.254 214.867 141.026C219.372 120.192 222.233 109.777 223.448 109.777L240.642 108.664ZM218.086 139.913L229.888 142.139C229.888 139.913 230.6 138.797 232.024 138.797H236.333L239.554 141.023H243.863C241.177 121.674 239.03 112 237.418 112H235.248C227.379 112 223.446 113.856 223.446 117.567L218.086 139.913ZM235.248 127.63L237.418 135.423L236.333 136.571H232.024C232.027 131.066 233.099 128.086 235.248 127.63Z"/><path fill="#6C9BEE" d="M263.969 108.737C273.098 109.6 277.663 110.952 277.663 112.795V123.93C277.663 125.271 274.162 125.941 267.155 125.941L265.054 128.995C266.105 131.702 267.155 133.053 268.206 133.053C268.206 129.006 268.908 126.984 270.308 126.984H278.714L280.816 128.995V141.137C280.816 143.173 275.199 144.191 263.969 144.191H257.664C251.359 143.306 248.207 140.263 248.207 135.068V131.009C248.207 116.158 253.461 108.737 263.969 108.737ZM251.359 131.007V137.114C251.359 139.462 254.861 141.151 261.867 142.18L275.562 141.137H277.663V130.002H270.308V131.009C273.81 131.009 275.562 131.691 275.562 133.056V134.063L273.46 136.075H270.308C264.681 135.404 261.867 133.045 261.867 128.998C262.849 125.621 265.311 123.933 269.257 123.933H274.511V112.798L263.969 111.791H262.918C255.213 111.791 251.359 118.194 251.359 131.007ZM269.257 133.053V134.06H272.409V133.053H269.257Z"/><path fill="#6C9BEE" d="M287.295 109.491H311.636L314.052 111.647V124.649C314.052 126.085 312.43 126.805 309.185 126.805L310.41 127.882V135.461C312.837 135.461 314.052 136.18 314.052 137.616V141.962L311.636 144.118H288.484C286.054 144.118 284.842 134.742 284.842 115.993V111.647L287.295 109.491ZM289.712 112.722L288.486 141.96H289.712L303.092 140.882H310.413V138.691C305.532 138.691 303.092 137.972 303.092 136.536V133.303H307.959V130.035C303.92 130.035 301.901 129.315 301.901 127.879V126.802C301.901 125.366 304.738 124.288 310.413 123.569V112.722H289.712Z"/><path fill-rule="evenodd" stroke="#fff" stroke-width=".5" d="M232.029 136.574H236.338L237.423 135.426L235.253 127.632C233.101 128.086 232.029 131.066 232.029 136.574ZM223.448 117.573C223.448 113.862 227.381 112.005 235.25 112.005H237.42C239.032 112.005 241.179 121.68 243.865 141.029H239.556L236.335 138.803H232.026C230.602 138.803 229.89 139.916 229.89 142.144L218.088 139.918L223.448 117.573ZM223.448 109.777C222.233 109.777 219.372 120.192 214.867 141.026C214.867 143.254 219.526 144.367 228.842 144.367C230.968 144.367 232.029 143.254 232.029 141.026H235.25C235.25 143.254 235.973 144.367 237.42 144.367H244.916L246.001 143.254C243.852 120.195 242.065 108.664 240.641 108.664L223.448 109.777Z" clip-rule="evenodd"/><path fill-rule="evenodd" stroke="#fff" stroke-width=".5" d="M272.411 134.06H269.258V133.056H272.411V134.06ZM262.919 111.791H263.97L274.512 112.795V123.93H269.258C265.312 123.93 262.848 125.618 261.869 128.995C261.869 133.043 264.682 135.401 270.309 136.072H273.461L275.563 134.06V133.056C275.563 131.691 273.811 131.009 270.309 131.009V130.005H277.664V141.14H275.563L261.869 142.182C254.865 141.153 251.361 139.465 251.361 137.117V131.012C251.361 118.194 255.215 111.791 262.919 111.791ZM248.209 131.007V135.065C248.209 140.26 251.361 143.303 257.666 144.188H263.97C275.2 144.188 280.817 143.17 280.817 141.134V128.995L278.715 126.984H270.309C268.909 126.984 268.208 129.009 268.208 133.053C267.157 133.053 266.106 131.702 265.055 128.995L267.157 125.941C274.163 125.941 277.664 125.271 277.664 123.93V112.795C277.664 110.952 273.099 109.597 263.97 108.737C253.462 108.737 248.209 116.161 248.209 131.007Z" clip-rule="evenodd"/><path fill-rule="evenodd" stroke="#fff" stroke-width=".5" d="M310.41 112.724V123.572C304.736 124.291 301.898 125.366 301.898 126.805V127.882C301.898 129.318 303.918 130.037 307.957 130.037V133.306H303.089V136.539C303.089 137.975 305.53 138.694 310.41 138.694V140.885H303.089L289.71 141.962H288.484L289.71 112.724H310.41ZM284.842 111.647V115.993C284.842 134.742 286.057 144.118 288.484 144.118H311.636L314.052 141.962V137.616C314.052 136.18 312.837 135.461 310.41 135.461V127.882L309.185 126.805C312.43 126.805 314.052 126.085 314.052 124.649V111.647L311.636 109.491H287.296L284.842 111.647Z" clip-rule="evenodd"/><path fill="#000" fill-rule="evenodd" d="M211.6 91.2458C208.421 90.5892 204.336 89.6202 201.192 90.9366C197.742 92.3808 195.327 95.328 191.584 96.4953C185.448 98.4089 177.565 99.544 172.843 104.511C169.238 108.303 163.112 121.49 169.567 124.515C168.498 120.726 169.732 118.987 170.367 115.296C171.924 116.822 171.308 118.537 171.782 120.506C172.641 124.076 173.442 126.287 172.613 130.126C171.731 134.211 169.092 138.918 169.768 143.268C170.107 145.45 176.828 145.799 177.96 144.315C178.868 143.124 177.698 141.182 178.374 139.746C178.807 141.503 179.893 143.606 179.993 145.358C180.069 146.67 179.239 147.994 180.333 149.125C181.562 150.394 188.219 150.44 188.842 148.505C189.394 146.789 187.415 145.343 187.115 143.755C186.478 140.373 187.118 135.178 187.581 131.73C191.574 132.235 194.185 131.614 197.989 130.527C197.978 134.732 198.849 137.007 199.847 140.949C200.082 141.877 199.443 143.033 200.019 143.864C201.293 145.7 207.605 145.536 208.709 143.597C209.876 141.547 206.292 138.113 206.796 135.337H207.197C208.242 138.495 210.457 140.708 211.005 144.155C211.23 145.571 210.147 147.153 211.335 148.303C212.607 149.535 220.034 150.514 220.444 148.105C220.729 146.436 218.539 144.631 218.236 142.953C217.88 140.981 219.388 139.345 218.988 137.341C217.87 131.735 213.703 128.198 215.604 122.511C219.654 122.378 220.957 114.395 221.608 110.887H222.409C223.761 115.187 225.938 117.37 228.329 120.949C230.332 123.948 231.447 126.7 234.819 128.561C238.804 130.76 246.269 128.812 243.626 123.312C239.463 125.062 237.573 125.638 235.219 120.907C237.159 120.347 238.845 118.845 240.824 118.537C245.117 117.869 249.304 119.243 252.743 115.622C256.994 111.149 255.877 100.85 248.83 100.064C250.085 102.418 252.606 103.755 253.378 106.477C255.03 112.299 248.725 116.602 243.626 115.696C245.381 112.685 249.922 103.702 244.427 102.068C245.312 105.32 245.486 114.204 240.023 114.371C238.11 114.43 236.021 111.757 234.889 110.486C232.061 107.313 233.297 104.834 232.029 101.267C230.862 97.9831 228.369 95.1732 226.84 92.0475C226.048 90.4311 226.58 88.6947 225.152 87.3492C221.639 84.0399 209.649 84.0473 211.6 91.2458Z" clip-rule="evenodd"/></svg>