<svg xmlns="http://www.w3.org/2000/svg" width="543" height="251" fill="none" viewBox="0 0 543 251"><path fill="#D9E4F7" d="M238.911 0.899902C233.348 8.33337 225.782 15.1164 219.229 22.0853C206.815 35.2841 194.295 48.4254 181.974 61.6685C176.069 68.0179 168.636 74.27 164.019 81.1813C156.449 76.8495 147.494 70.8807 138.556 68.3586C127.221 81.1503 117.391 94.8005 106.797 107.942C103.814 111.641 100.941 115.393 97.962 119.092C96.5901 120.795 95.3158 123.048 93.2202 124.331C90.7471 125.844 86.1607 125.707 83.1327 125.787C77.1344 125.95 71.1539 126.756 65.16 126.888C62.1275 126.955 56.1026 126.618 53.8072 128.348C50.9035 130.539 50.0288 135.22 48.6436 138.047C44.9185 145.64 41.1756 153.246 37.6992 160.905C29.9116 178.064 21.6845 195.232 13.1643 212.196C10.567 217.373 8.27154 222.629 5.67419 227.806C3.60964 231.921 0.874661 236.28 0 240.629C122.825 240.629 245.669 240.072 368.49 240.072H483.829H520.53C527.966 240.072 535.661 239.616 543 240.629C542.485 238.713 540.789 239.107 538.507 238.399L525.773 234.496C520.206 232.771 514.864 230.647 509.297 228.921C507.743 228.439 505.483 228.426 504.053 227.806C502.588 227.169 501.851 225.806 501.056 225.019C498.401 222.382 495.475 220.408 492.816 217.771C483.505 208.528 473.666 199.134 464.356 189.896C460.875 186.44 457.212 183.179 453.869 179.861C452.87 178.869 451.374 178.192 450.872 177.073C448.936 172.746 448.621 168.144 447.125 163.693L435.141 128.012C433.823 124.092 432.686 120.141 431.399 116.304C430.941 114.946 431.234 112.278 429.902 111.287C429.232 110.787 427.74 111.004 426.905 110.729C424.907 110.07 422.918 109.676 420.912 109.057C410.771 105.911 400.346 103.283 390.205 100.137C385.557 98.6942 380.34 98.1809 375.975 96.2341L376.726 95.6766C373.924 95.6766 374.066 91.8492 373.48 90.1015C371.646 84.6503 371.185 77.9646 368.237 72.8187C366.851 70.4028 360.538 72.0797 358.003 72.2612C353.794 72.5665 348.452 71.6328 344.523 73.0974C341.158 74.3496 338.187 77.5354 335.537 79.5088C334.582 75.3009 327.518 74.3142 325.05 70.5886C323.886 71.0222 324.188 70.7435 325.05 71.7036C322.621 70.6506 321.054 69.6904 319.806 67.8011C318.643 68.2347 318.945 67.9559 319.806 68.9161C318.67 68.1904 318.217 67.6949 317.56 66.6861C316.396 67.1197 316.698 66.8409 317.56 67.8011C316.232 67.0356 315.761 66.748 315.313 65.571C304.12 64.3941 300.91 56.1111 297.576 49.4032C292.674 39.5362 287.661 29.6957 282.675 19.8552C280.531 15.6252 279.048 9.74041 275.447 6.08563C273.343 3.94851 268.339 4.0901 265.129 3.75825C256.378 2.85561 247.671 1.72289 238.911 0.899902Z"/><path fill="#D9E4F7" d="M132.675 138.562C131.808 131.631 134.068 123.478 140.419 120.63C142.497 119.697 144.802 119.43 147.026 118.946C155.248 117.151 162.722 112.108 167.486 105.137"/><path fill="#D9E4F7" d="M133.338 138.562C132.63 132.746 133.975 125.482 139.211 122.052C140.795 121.012 142.599 120.514 144.435 120.141C146.319 119.759 148.203 119.417 150.038 118.835C153.444 117.76 156.685 116.142 159.596 114.068C162.89 111.717 165.756 108.82 168.056 105.479C168.543 104.773 167.393 104.106 166.911 104.808C162.798 110.789 156.663 115.329 149.768 117.529C147.902 118.124 145.996 118.471 144.081 118.862C142.21 119.244 140.357 119.764 138.725 120.79C136.107 122.434 134.298 125.033 133.201 127.894C131.91 131.258 131.578 135.003 132.011 138.566C132.113 139.406 133.444 139.415 133.338 138.562Z"/><path fill="#fff" d="M101.026 159.924C103.684 147.044 110.15 134.981 119.398 125.664C121.375 129.769 126.324 131.915 130.83 131.369C135.337 130.818 139.335 127.965 142.126 124.366C146.792 118.355 149.246 109.673 156.407 107.145C158.432 109.838 160.887 112.201 163.656 114.116C164.394 114.627 165.248 115.129 166.137 114.983C167.048 114.832 167.702 114.045 168.268 113.308L195.716 77.7904"/><path fill="#D9E4F7" d="M101.663 160.101C103.733 150.145 108.045 140.708 114.201 132.63C115.944 130.342 117.841 128.178 119.862 126.135C119.513 126.09 119.168 126.046 118.818 126.001C120.287 128.983 123.219 131 126.399 131.76C129.849 132.586 133.413 131.875 136.491 130.165C139.601 128.436 142.051 125.81 144.01 122.869C145.814 120.163 147.283 117.253 149.065 114.534C150.945 111.673 153.28 108.976 156.579 107.79C156.327 107.687 156.08 107.585 155.832 107.483C158.003 110.353 160.661 113.046 163.722 114.961C164.469 115.427 165.323 115.774 166.216 115.636C167.012 115.511 167.671 115.009 168.202 114.423C169.538 112.943 170.688 111.246 171.908 109.669C177.092 102.96 182.275 96.2555 187.459 89.5465C190.364 85.7833 193.274 82.0245 196.18 78.2613C196.698 77.5904 195.764 76.6396 195.242 77.3194C190.329 83.6773 185.415 90.0308 180.506 96.3888C178.029 99.5966 175.548 102.804 173.067 106.012C171.851 107.585 170.635 109.162 169.418 110.735C168.826 111.499 168.242 112.273 167.645 113.028C167.194 113.597 166.637 114.307 165.849 114.334C164.912 114.37 164.001 113.561 163.293 113.037C162.492 112.45 161.727 111.824 160.989 111.157C159.52 109.838 158.171 108.376 156.977 106.803C156.809 106.581 156.526 106.39 156.23 106.497C150.25 108.651 147.389 114.734 144.333 119.848C142.621 122.714 140.715 125.455 138.062 127.525C135.355 129.636 131.971 131.004 128.504 130.742C124.992 130.476 121.56 128.547 119.968 125.317C119.778 124.926 119.212 124.895 118.925 125.184C111.667 132.519 106.108 141.49 102.72 151.255C101.756 154.028 100.977 156.863 100.38 159.742C100.212 160.586 101.49 160.941 101.663 160.101Z"/><path fill="#fff" d="M262.914 24.7411C262.41 32.2631 261.91 39.8829 263.321 47.2849C264.732 54.6869 268.301 61.9735 274.444 66.301C279.119 69.5888 284.996 71.0017 289.256 74.8138C293.515 78.6259 295.549 84.2729 297.721 89.5734C300.825 97.1443 304.815 104.804 311.586 109.363"/><path fill="#D9E4F7" d="M262.251 24.741C261.724 32.5784 261.198 40.5625 262.852 48.3111C264.179 54.5313 267.036 60.6716 271.777 65.0035C274.232 67.2472 277.137 68.7756 280.118 70.1974C283.108 71.6236 286.217 73.0098 288.725 75.2268C293.762 79.6876 295.633 86.5609 298.265 92.5235C300.878 98.446 304.213 104.333 309.295 108.478C309.927 108.994 310.582 109.482 311.258 109.94C311.966 110.42 312.634 109.269 311.926 108.789C306.553 105.146 302.992 99.5079 300.259 93.7186C297.491 87.845 295.766 81.2338 291.516 76.191C289.393 73.6718 286.637 71.9257 283.727 70.4639C280.768 68.98 277.668 67.7226 274.931 65.8299C269.721 62.2266 266.435 56.4107 264.741 50.3993C262.658 43.0195 262.914 35.2265 263.392 27.6467C263.454 26.6781 263.516 25.7096 263.582 24.741C263.635 23.8835 262.308 23.8879 262.251 24.741Z"/><path fill="#fff" d="M385.52 107.492C394.542 107.501 403.564 107.51 412.587 107.514C414.869 107.519 417.474 107.665 418.902 109.456C419.8 110.575 419.995 112.09 420.172 113.517C422.078 129.218 425.063 144.787 429.101 160.071"/><path fill="#D9E4F7" d="M385.52 108.159C391.314 108.163 397.112 108.167 402.905 108.172C405.802 108.172 408.699 108.176 411.596 108.181C413.63 108.181 416.204 107.976 417.89 109.367C418.792 110.113 419.141 111.229 419.34 112.344C419.575 113.655 419.685 114.992 419.858 116.311C420.225 119.128 420.618 121.941 421.056 124.744C421.919 130.347 422.923 135.927 424.064 141.481C425.355 147.777 426.823 154.037 428.464 160.248C428.681 161.075 429.963 160.724 429.742 159.893C426.761 148.581 424.347 137.122 422.52 125.566C422.069 122.7 421.649 119.83 421.273 116.951C421.092 115.569 420.932 114.179 420.747 112.797C420.583 111.597 420.344 110.344 419.636 109.331C418.327 107.452 416.036 106.972 413.887 106.875C411.114 106.746 408.323 106.843 405.546 106.843C398.872 106.839 392.194 106.83 385.52 106.826C384.666 106.826 384.666 108.159 385.52 108.159Z"/><path fill="#000" fill-rule="evenodd" d="M349.712 152.418C344.434 151.328 337.65 149.719 332.429 151.905C326.701 154.303 322.69 159.197 316.475 161.135C306.286 164.313 293.196 166.198 285.355 174.445C279.367 180.742 269.195 202.64 279.913 207.663C278.139 201.371 280.189 198.484 281.243 192.354C283.827 194.888 282.804 197.736 283.592 201.007C285.018 206.934 286.348 210.607 284.972 216.981C283.507 223.765 279.125 231.58 280.247 238.804C280.81 242.427 291.972 243.006 293.852 240.542C295.359 238.565 293.416 235.339 294.538 232.956C295.257 235.873 297.06 239.365 297.228 242.274C297.353 244.452 295.975 246.651 297.791 248.529C299.832 250.637 310.887 250.714 311.92 247.501C312.837 244.65 309.551 242.25 309.054 239.612C307.996 233.997 309.058 225.37 309.827 219.644C316.458 220.483 320.794 219.452 327.111 217.647C327.092 224.63 328.539 228.407 330.196 234.952C330.586 236.494 329.524 238.413 330.482 239.793C332.597 242.841 343.078 242.57 344.911 239.35C346.849 235.945 340.897 230.244 341.735 225.634H342.4C344.137 230.877 347.814 234.552 348.723 240.277C349.097 242.629 347.299 245.254 349.272 247.165C351.384 249.21 363.717 250.835 364.399 246.835C364.871 244.065 361.234 241.068 360.732 238.28C360.14 235.007 362.644 232.289 361.981 228.962C360.123 219.652 353.203 213.779 356.36 204.335C363.087 204.114 365.25 190.859 366.331 185.033H367.661C369.906 192.173 373.521 195.799 377.491 201.742C380.817 206.721 382.668 211.291 388.268 214.382C394.885 218.034 407.282 214.798 402.893 205.666C395.98 208.572 392.841 209.527 388.933 201.673C392.154 200.742 394.954 198.247 398.24 197.736C405.368 196.627 412.321 198.909 418.033 192.897C425.091 185.469 423.236 168.366 411.535 167.061C413.619 170.97 417.804 173.191 419.087 177.711C421.83 187.378 411.36 194.523 402.893 193.02C405.808 188.019 413.348 173.103 404.222 170.389C405.693 175.789 405.981 190.541 396.909 190.819C393.733 190.916 390.265 186.478 388.384 184.367C383.689 179.099 385.74 174.982 383.636 169.058C381.698 163.606 377.558 158.94 375.018 153.749C373.704 151.065 374.587 148.182 372.216 145.948C366.383 140.452 346.472 140.465 349.712 152.418Z" clip-rule="evenodd"/></svg>